# xmcd
#
# Track frame offsets:
#	150
#	17192
#	34234
#	52265
#	68857
#	85400
#	103971
#	124694
#	146988
#	165632
#	187299
#	207151
#	231005
#	249638
#	269253
#	292863
#
# Disc length: 4316 seconds
#
# Revision: 0
# Processed by: cddbd v1.5.2PL0 Copyright (c) Steve Scherf et al.
# Submitted via: EasyCDDAExtractor 10.0.5.1
#
DISCID=fa10da10
DTITLE=Habib and Mohamad - Khodesheh
DYEAR=2006
DGENRE=Pop
TTITLE0=Baroon
TTITLE1=Baroon
TTITLE2=Setareh
TTITLE3=Eshareh
TTITLE4=Lahzeh
TTITLE5=Hegh Hegh
TTITLE6=Khodesheh
TTITLE7=Maro Baash
TTITLE8=Shirin va Farhad
TTITLE9=Namazo Roozeh
TTITLE10=Ghesseyeh Eshgh
TTITLE11=Mardeh Tanhayeh Shab (club)
TTITLE12=Havayeh Gerye
TTITLE13=Zendegi
TTITLE14=Tanhai
TTITLE15=Mardeh Tanhayeh Shab ~ji
EXTD=
EXTT0=
EXTT1=
EXTT2=
EXTT3=
EXTT4=
EXTT5=
EXTT6=
EXTT7=
EXTT8=
EXTT9=
EXTT10=
EXTT11=
EXTT12=
EXTT13=
EXTT14=
EXTT15=
PLAYORDER=
